<?xml version="1.0" encoding="utf-8"?>
<!-- Generator: Adobe Illustrator 26.2.1, SVG Export Plug-In . SVG Version: 6.00 Build 0)  -->
<svg version="1.1" id="Layer_1" xmlns="http://www.w3.org/2000/svg" xmlns:xlink="http://www.w3.org/1999/xlink" x="0px" y="0px"
	 viewBox="0 0 699.9 548.6" style="enable-background:new 0 0 699.9 548.6;" xml:space="preserve">
<style type="text/css">
	.st0{fill:#FFFFFF;}
	.st1{fill:#A32036;}
</style>
<g>
	<g>
		<path class="st0" d="M699.6,146.3c-0.2-1.1-0.4-2-0.8-3c-0.9-2.5-2.4-4.7-4.3-6.5l0,0l0,0l-0.4-0.4l-3.4-3.4
			c-4.6-4.5-10.2-10.1-10.6-10.5c-0.7-0.6-1.3-3.5-1.8-5.7c-1.1-4.8-2.4-10.7-6.5-16.5c-9.9-13.8-26.1-23.4-34.7-27.8l-16.2-54.7
			c-4.8-20.2-23.8-18.4-25.4-17.3c3,17.9,0.5,27.5-1.5,32.3c-0.3,0.9-0.7,1.7-1.2,2.6c0,0.1-0.1,0.2-0.1,0.3l0,0
			c-1.2,2.2-2.9,4.3-5.2,5.9c-9,6.3-18.2,14.7-21,29.4c-12.3,4.2-34.9,14.1-55.1,34.3c-4.6-1.1-10.7-2.1-17.9-2.1
			c-5.9,0-11.8,0.7-17.6,2c-15.1,3.5-27.9,11-44,20.6c-24.7,14.7-58.4,34.7-122.9,53.6c-19.7,5.8-39.1,9.6-56.3,13
			c-35.7,7-64.5,12.7-84.2,30.9c-1.7-0.2-3.5-0.3-5.6-0.3c-15.3,0-27.7,7.1-34.9,20c-2.8,5-5.2,10.5-7.7,16.3
			c-8.2,18.5-14.3,30.7-24.5,30.7c-14.7,0-30.3,10.6-30.3,30.3c0,7.6,2.9,14.8,8.3,20.3c2.6,2.7,5.6,4.8,9,6.5l-0.4,1.5
			c-5.6,18.3-17.5,44.4-42.3,64.8l-0.2,0.1l-0.2,0.1c-0.8,0.7-1.6,1.3-2.3,2c-4.4,3.5-10.3,8.4-13.3,19l-22.8,79
			c-0.7,2.3-3.9,14.6,3.5,24.7c3.5,4.8,10.5,10.4,23.8,10.4h31.6h3.2h4.4h184.4h13.2h18.4h7.6h7.1h373.7h12.7l-1.1-12.7l-0.1-0.6
			c-0.7-7.6-6.3-22.5-22.8-25.2c-5.9-0.9-9.8-2.1-12.1-2.9c-0.5-2.1-0.8-4.9-1.2-9.3l-0.1-0.6c-0.4-4-1.1-11.4-6.8-16.7
			c-5.1-4.7-11-5.6-15.3-6.2c-0.5-0.1-1-0.1-1.4-0.2c-1.7-0.3-3-0.5-4.1-0.8c-0.1-0.2-0.1-0.4-0.2-0.6
			c-6.3-17.5-11.7-32.5-38.7-32.5c-2.3,0-4.7,0.1-7.4,0.3l-0.9,0.1c-0.8-3.6-2.3-6.9-4.6-9.8c-3.3-4.2-9.4-9.1-20.4-10.3
			c-12.3-49.6-4.5-92.5,2.3-119.5l4.3,4.1l7.7-12.2l0.4-0.6c14.4-22.8,20.4-45.1,22.9-61c0,0,13.1,4.7,28.3,0.3l-0.8-5.1
			c0,0,12.9,2.2,22.8-0.9l-0.9-5.5l-1-6.7l-2.1-13.2c-0.8-4.8,0.3-7.2,0.8-7.5c0.1-0.1,0.5-0.1,0.8-0.1c1.7,0,4.1,1,6.4,2.6
			c5.3,3.7,11.1,5.6,17,5.6c8.8,0,15.2-4.1,18.3-6.5c6.9-5.5,9.3-13,10-18.6c7.8-7.3,11.6-15.5,13.3-20.2
			C699.9,152.5,700.2,149.4,699.6,146.3"/>
		<path class="st1" d="M593.5,494.6c5.7,2.5,19,0,18.3,10.5c-0.7,10.6,6.7,13.5,6.7,13.5H508.2h-17.4c0,0,1.8-4.5,12.4-7.9
			c16.8-5.4,16.5-15.8,16.5-15.8c-26.9-5.4-75.3-2.3-75.3-2.3s2-6.8,15.5-8.2c0.2,0,109.2-10.1,112.6-10.3c2.1-0.1,7.8-1,10.4,4.1
			C587.1,486,587.4,491.9,593.5,494.6 M538.1,247.9l-10.3,22.9c-0.9,1.9-14.4,33-16.2,80.6c-13.5-28.8-15.6-50.5-12.3-68.3
			c0,0,0,0,0,0c-8.8,3.6-19.2,17.8-19.2,17.8c-1.3-10.8,0.4-31.3,25.7-57.3c30.7-31.5,32.2-60.3,32.2-60.3S554.2,208.3,538.1,247.9
			 M229.1,343.1c0,0-11.4,8.5-18.1,22.3c0,0-1.2-4.8-1.6-12.4c0-0.3,0-0.6-0.1-1c0-0.3,0-0.7,0-1.1c-0.1-3.1-0.1-6.6,0.1-10.4
			c0-0.2,0-0.5,0-0.7c0-0.2,0-0.5,0-0.7c2-25.1,14.9-61.1,69.4-74.1c0,0-17.1,19.8-12.5,64.9c3.9,37.6,7.2,81.3-31.9,100.6
			C234.5,430.6,253.5,394.6,229.1,343.1 M472.3,461.7c1.9-6.2,1.4-11.6-1.6-15.5c-3.6-4.6-10.5-6.7-20.1-5.9
			c-2.4-22.3,2.1-72.8,12.3-112l47.8,111.8v0c2.5,5.6,6.4,14.4,14.4,16.8L472.3,461.7z M640.6,124.6c-5.8-5.9-3.3-12.3-3.3-12.3
			c5.5,5,8.9,3.5,13.1,7.1c6.9,5.7,4.5,12.9,4.5,12.9C649.4,127.1,645.9,129.9,640.6,124.6 M595.9,186
			c-10.2-4.8-13.4-16.5-13.4-16.5c-6.3,6.8-8.5,17.7-8.5,17.7c-13.6-13.2-11.2-39.2,3.5-50.2c24.2-18.2,58.8-4.2,70.3,27.2
			C616.8,143.8,594.6,164.6,595.9,186 M688.1,148.3c-0.1-0.3-0.1-0.6-0.2-0.9c-0.4-1.1-1.1-1.8-1.5-2.3c-0.1-0.1-0.3-0.2-0.4-0.4
			c0,0,0,0,0,0c-4.5-4.5-13.4-13.3-14-13.9c-3.1-3.1-4.1-7.2-5-11.5c-0.9-4.1-1.8-8.3-4.6-12.1c-11.1-15.3-32.5-25.2-35-26.4
			l-18.7-62.9l-1.1,0.2c0,0.2,2.6,22-13.3,33.1C584,58.4,577.6,65.8,577.5,80c-4.1,1-36.9,10-62.5,38.7c-2.5-1-17.2-6.4-36.5-2
			c-13.3,3-25.4,10.2-40.7,19.3c-25.1,14.9-59.6,35.4-125.5,54.7c-20.1,5.9-39.9,9.8-57.3,13.2c-36.5,7.2-65.3,12.9-82.5,32
			c-3-0.8-23.9-5.8-34.1,12.8c-2.5,4.6-4.8,9.8-7.3,15.3c-8.2,18.5-16.6,37.6-35.2,37.6c-9.2,0-18.6,6.4-18.6,18.6
			c0,4.7,1.8,8.9,4.9,12.1c3.2,3.3,7.9,5.7,13.6,6.5c0.4,0.1,0.8,0.1,1.2,0.1c0.2,0,0.4,0,0.6,0.1c0.2,0,0.3,0,0.5,0
			c27,2.4,47-19.4,51.1-30.1c-0.7,9.2-6.6,44.7-54.5,43c-0.2,0-0.3,0-0.5,0c-0.1,0-0.2,0-0.3,0c-0.1,0-0.2-0.1-0.3-0.1
			c-6.4,21-19.5,48.6-46,70.4c-0.9,0.8-1.9,1.6-2.8,2.3c-3.8,3.1-7.4,6-9.4,13l-22.8,79.2c-0.1,0.3-2.6,8.6,1.7,14.4
			c2.7,3.7,7.6,5.6,14.4,5.6h31.6l0.1-0.3c2.8-6.3,2.8-12.1,0-16.3c-3.2-4.9-9.9-7.5-19.4-7.6c0.9-4.3,6.4-28.9,22.9-45
			c8.2-8,22.5-16.2,39-25.6c2.3-1.3,4.6-2.6,7-4l3.1,11l0.6-0.3c0.5-0.2,48.2-24.6,76.6-70.5c0.7,1.5,1.5,3.1,2.2,4.8
			c18,42.9-2.1,73.2-6.3,78.9c-5.4,7.3-0.9,12.2-0.9,12.2l53.5,54.9c0.3,0.3,6.9,7.8,13.6,7.8h31.6l0.1-0.3c2.8-6.3,2.8-12.1,0-16.3
			c-3.2-5-10.1-7.6-19.9-7.6c-1.2-0.6-12.7-6.7-24.5-27.8c-6.8-12.2,0.4-20.6,11.4-33.4c5.7-6.6,12.2-14.3,18.3-24.1l9.6,6.8
			l0.3-0.5c0.2-0.4,21.2-38.7,8.7-91.4c13.9-12,38.1-14.7,66-17.8c13.6-1.5,27.9-3.1,42.2-5.9c4.9,24.4,19,93.9,26.3,129.4
			c1.3,6.2,6,14.7,14.4,16.9l-57.8,5.2c-15.5,1.4-23.7,2.5-25.2,9.2c-2.2,9.8-5.3,12.4-8.2,14.9c-3.1,2.7-6.1,5.2-7.4,15.7
			c-5.5,2.4-8.9,3.1-20.4,4.3c-6.7,0.7-12.2,4.7-15.7,11.7c-2.6,5.2-3.3,10.2-3.3,10.4l-0.1,0.6h373.7l-0.1-0.6
			c0-0.1-1.2-12.7-12.9-14.5c-13.9-2.2-19.2-5.6-19.9-6.2c-2-4.8-2.4-8.7-3.2-16.4l-0.1-0.6c-0.3-3-0.7-7-3.1-9.2
			c-2.4-2.2-5.6-2.7-9-3.2c-0.5-0.1-1-0.1-1.6-0.2c-5.3-0.8-9.3-2-11.5-3.4c-0.8-2-1.4-3.9-2.1-5.7c-6.7-18.5-9.4-26.2-34.1-24.3
			l-14,1.3c1.9-6.2,1.4-11.6-1.6-15.5c-3.6-4.6-10.6-6.7-20.1-5.9c-19.1-66-3.7-121.3,3.8-147.9c0.5-1.9,1-3.6,1.5-5.3l8.1,7.8
			l0.4-0.6c21.5-34,22.8-66.8,22.8-75.1c8.4,11.7,24.1,10.3,24.3,10.2l0.6-0.1l-2.4-15.7c8.5,11.1,23.7,9.7,23.9,9.6l0.6-0.1
			l-2.1-13.2c-1.4-8.9,0.8-15.9,6.2-19.3c5.3-3.3,12.9-2.3,20.2,2.8c10.3,7.1,18.9,1.4,21.4-0.5c6.2-4.9,6-13.3,5.9-15
			c8.4-6.3,12.2-14.1,13.8-18.6C688.2,150.3,688.2,149.2,688.1,148.3"/>
	</g>
</g>
</svg>
